<?xml version="1.0" encoding="UTF-8"?>
<svg version="1.1" xmlns="http://www.w3.org/2000/svg" width="512" height="512">
<path d="M0 0 C3.77875065 2.31360708 6.73452593 5.36788633 9.8261261 8.51362181 C10.55575027 9.23982827 11.28537443 9.96603474 12.03710842 10.71424747 C14.46791309 13.13848856 16.88418786 15.57670087 19.30073547 18.01514769 C21.04487621 19.76041722 22.78989922 21.50480542 24.53573608 23.24837828 C28.28647499 26.9982077 32.03101776 30.75406094 35.77000427 34.51559782 C41.17587004 39.95404575 46.59281768 45.3813446 52.01248705 50.80603257 C60.80636068 59.60864911 69.59127441 68.42015114 78.37055969 77.23731565 C86.89613007 85.79963213 95.42591386 94.35771495 103.96138 102.91016722 C104.75127465 103.7016382 104.75127465 103.7016382 105.55712676 104.5090985 C108.19907333 107.15626542 110.84110275 109.80334962 113.48317337 112.45039272 C135.38313813 134.39178826 157.26841229 156.34778194 179.14448547 178.31299925 C182.04445904 177.00062596 184.10667558 175.59820918 186.34737015 173.34503698 C186.95999498 172.73392746 187.57261981 172.12281793 188.20380902 171.49318993 C189.19952047 170.48464725 189.19952047 170.48464725 190.21534729 169.45572996 C190.92774213 168.74222171 191.64013696 168.02871346 192.37411952 167.29358375 C194.76620813 164.89541071 197.15106884 162.49017516 199.53608704 160.0849719 C201.24735421 158.36659404 202.95909155 156.6486843 204.67126465 154.93120909 C208.3609855 151.22837423 212.04776243 147.52263424 215.7321701 143.81451368 C221.06589465 138.44682459 226.40704676 133.08657403 231.75042734 127.72849898 C240.42834427 119.02668696 249.10325177 110.32188274 257.77485657 101.6137805 C258.29385366 101.09260316 258.81285076 100.57142582 259.34757504 100.03445522 C266.70864963 92.64217636 274.06672308 85.24691744 281.42358658 77.85044794 C281.94137091 77.32987698 282.45915524 76.80930602 282.99263 76.27296019 C283.76835516 75.49305444 283.76835516 75.49305444 284.55975154 74.69739302 C293.19044934 66.02058577 301.82889181 57.35153681 310.4736917 48.68877971 C315.80307284 43.34770661 321.12585364 38.00022027 326.44026986 32.64425598 C330.51615301 28.53765246 334.6024066 24.44149666 338.69254494 20.34909582 C340.36656165 18.67078714 342.03713749 16.9890382 343.70397758 15.30360174 C345.98204316 13.00111189 348.27218651 10.7113345 350.56568909 8.42423582 C351.5480162 7.4223853 351.5480162 7.4223853 352.5501883 6.40029538 C357.42270883 1.5804121 362.40181715 -2.05074714 369.26948547 -3.21825075 C376.79515894 -3.13644995 382.25519077 -2.27244431 387.89448547 2.9262805 C392.80904174 8.25432107 394.71017887 13.59880102 394.43532717 20.84392107 C393.43287322 29.35417659 388.09439991 35.08240761 382.22496033 40.85398436 C381.42131621 41.6640173 380.61767209 42.47405024 379.78967512 43.30862963 C377.10539511 46.00811721 374.40368482 48.6894337 371.70161438 51.37110472 C369.76745812 53.30599826 367.8370596 55.2446256 365.90646362 57.18307066 C361.21232 61.89170757 356.50495489 66.58690636 351.7928548 71.27756624 C346.30330173 76.74305979 340.82668641 82.22144197 335.35045211 87.70027484 C325.57894287 97.47547053 315.79524554 107.23837629 306.00483704 116.99463987 C296.50845269 126.45791711 287.02160148 135.93062066 277.5448761 145.41358519 C267.21779396 155.7474329 256.8861188 166.07664289 246.54582727 176.39727461 C245.72554611 177.21599654 245.72554611 177.21599654 244.88869362 178.0512583 C243.79043722 179.14742386 242.69217076 180.24357934 241.59389413 181.33972462 C237.77356871 185.15315884 233.95635856 188.96969453 230.14020157 192.78729963 C225.490157 197.43878456 220.83458384 202.08465389 216.17199208 206.72356276 C213.7938445 209.08985961 211.41896588 211.4592021 209.04884148 213.83355093 C206.47875382 216.40734545 203.89964325 218.97174234 201.31797791 221.533916 C200.57166662 222.28555521 199.82535533 223.03719442 199.05642855 223.81161058 C193.27102945 229.52169613 188.66053052 232.73824606 180.26948547 232.81299925 C178.54085266 232.8594055 178.54085266 232.8594055 176.77729797 232.90674925 C168.39747654 231.53714403 162.57841187 225.18330648 156.80641174 219.3693347 C156.0061059 218.57511996 155.20580005 217.78090521 154.38124251 216.96262336 C151.71346229 214.31143236 149.05646164 211.64970225 146.39936829 208.98780394 C144.48493993 207.07908417 142.56830877 205.17258151 140.65182495 203.26592588 C135.99544306 198.63054636 131.34729582 193.98699466 126.70229754 189.34021059 C122.92574709 185.5623502 119.14664226 181.78706361 115.36573029 178.0135684 C114.27483022 176.92476762 113.18393099 175.83596599 112.0930326 174.74716353 C111.2784786 173.93417483 111.2784786 173.93417483 110.44746897 173.10476211 C100.18984416 162.86601779 89.9421885 152.61734017 79.69741532 142.36573914 C70.33175014 132.99449675 60.95294533 123.63653064 51.56795803 114.28464231 C41.92143592 104.67187697 32.28425176 95.04983912 22.65690303 85.41787028 C17.25570947 80.01443449 11.85085536 74.61478563 6.43608856 69.22494841 C1.82755067 64.63744893 -2.77214071 60.04129868 -7.36072388 55.43383637 C-9.70034436 53.08507469 -12.04496185 50.74197262 -14.39815331 48.4067626 C-16.95230427 45.87078564 -19.49052334 43.31984507 -22.02537537 40.76459837 C-22.76700196 40.03548962 -23.50862855 39.30638088 -24.27272868 38.55517793 C-29.63156193 33.10362371 -33.91995218 27.13288799 -34.29301453 19.25049925 C-33.47731442 11.90919826 -31.22381979 6.56200884 -25.85551453 1.31299925 C-18.00167849 -4.56824541 -8.46785803 -4.36719672 0 0 Z " fill="#000000" transform="translate(75.85551452636719,151.68700075149536)"/>
</svg>
