<?xml version="1.0" encoding="UTF-8"?>
<svg version="1.1" xmlns="http://www.w3.org/2000/svg" width="512" height="512">
<path d="M0 0 C3.08046224 2.41838846 5.79743307 5.12945345 8.54098511 7.91952515 C9.35101805 8.72316927 10.16105099 9.52681339 10.99563038 10.35481036 C13.69511796 13.03909036 16.37643445 15.74080065 19.05810547 18.44287109 C20.99299901 20.37702736 22.93162635 22.30742587 24.87007141 24.23802185 C29.57870832 28.93216548 34.27390711 33.63953058 38.96456699 38.35163067 C44.43006054 43.84118374 49.90844272 49.31779906 55.38727559 54.79403336 C65.16247128 64.56554261 74.92537704 74.34923993 84.68164062 84.13964844 C94.14491786 93.63603279 103.61762141 103.122884 113.10058594 112.59960938 C123.43443365 122.92669151 133.76364364 133.25836668 144.08427536 143.5986582 C144.90299729 144.41893936 144.90299729 144.41893936 145.73825905 145.25579185 C146.83442461 146.35404825 147.93058009 147.45231471 149.02672537 148.55059134 C152.84015959 152.37091676 156.65669528 156.18812692 160.47430038 160.00428391 C165.12578531 164.65432848 169.77165464 169.30990163 174.41056351 173.9724934 C176.77686036 176.35064097 179.14620286 178.72551959 181.52055168 181.095644 C184.0943462 183.66573165 186.65874309 186.24484223 189.22091675 188.82650757 C189.97255596 189.57281886 190.72419517 190.31913014 191.49861133 191.08805692 C197.20869688 196.87345602 200.42524681 201.48395496 200.5 209.875 C200.54640625 211.60363281 200.54640625 211.60363281 200.59375 213.3671875 C199.22414478 221.74700893 192.87030723 227.5660736 187.05633545 233.33807373 C186.26212071 234.13837958 185.46790596 234.93868542 184.64962411 235.76324296 C181.99843311 238.43102318 179.336703 241.08802383 176.67480469 243.74511719 C174.76608492 245.65954555 172.85958226 247.5761767 170.95292664 249.49266052 C166.31754711 254.14904241 161.67399541 258.79718966 157.02721134 263.44218794 C153.24935095 267.21873838 149.47406436 270.99784321 145.70056915 274.77875519 C144.61176837 275.86965525 143.52296674 276.96055448 142.43416429 278.05145288 C141.62117558 278.86600687 141.62117558 278.86600687 140.79176286 279.69701651 C130.55301854 289.95464131 120.30434092 300.20229698 110.05273989 310.44707015 C100.6814975 319.81273533 91.32353139 329.19154014 81.97164306 338.57652745 C72.35887772 348.22304955 62.73683988 357.86023371 53.10487103 367.48758245 C47.70143524 372.888776 42.30178638 378.29363012 36.91194916 383.70839691 C32.32444968 388.31693481 27.72829943 392.91662619 23.12083712 397.50520936 C20.77207544 399.84482984 18.42897337 402.18944732 16.09376335 404.54263878 C13.5577864 407.09678974 11.00684583 409.63500881 8.45159912 412.16986084 C7.72249038 412.91148743 6.99338163 413.65311403 6.24217868 414.41721416 C0.79062446 419.7760474 -5.18011126 424.06443766 -13.0625 424.4375 C-20.40380099 423.62179989 -25.75099041 421.36830526 -31 416 C-34.95664657 410.71627943 -35.46088726 405.59837198 -35.53125 399.125 C-34.17429388 391.14290518 -29.41274712 385.83512797 -23.79937744 380.31835938 C-22.71006774 379.22392313 -22.71006774 379.22392313 -21.59875178 378.10737705 C-19.17451069 375.67657239 -16.73629838 373.26029761 -14.29785156 370.84375 C-12.55258203 369.09960926 -10.80819382 367.35458625 -9.06462097 365.60874939 C-5.31479155 361.85801049 -1.55893831 358.11346772 2.20259857 354.3744812 C7.64104651 348.96861544 13.06834535 343.55166779 18.49303332 338.13199842 C27.29564986 329.3381248 36.10715189 320.55321107 44.92431641 311.77392578 C53.48663288 303.2483554 62.0447157 294.71857162 70.59716797 286.18310547 C71.38863895 285.39321082 71.38863895 285.39321082 72.19609925 284.58735871 C74.84326617 281.94541215 77.49035037 279.30338273 80.13739347 276.6613121 C102.07878901 254.76134734 124.03478269 232.87607318 146 211 C144.68762671 208.10002643 143.28520994 206.0378099 141.03203773 203.79711533 C140.42092821 203.1844905 139.80981868 202.57186567 139.18019068 201.94067645 C138.171648 200.94496501 138.171648 200.94496501 137.14273071 199.92913818 C136.42922246 199.21674335 135.71571421 198.50434851 134.9805845 197.77036595 C132.58241146 195.37827734 130.17717592 192.99341663 127.77197266 190.60839844 C126.05359479 188.89713127 124.33568505 187.18539392 122.61820984 185.47322083 C118.91537498 181.78349997 115.20963499 178.09672304 111.50151443 174.41231537 C106.13382534 169.07859082 100.77357478 163.73743871 95.41549973 158.39405814 C86.71368771 149.7161412 78.00888349 141.04123371 69.30078125 132.36962891 C68.77960391 131.85063181 68.25842657 131.33163472 67.72145598 130.79691043 C60.32917711 123.43583585 52.93391819 116.07776239 45.53744869 108.7208989 C44.75659225 107.9442224 44.75659225 107.9442224 43.95996094 107.15185547 C43.44002377 106.63470536 42.9200866 106.11755526 42.38439377 105.58473393 C33.70758652 96.95403614 25.03853756 88.31559366 16.37578046 79.67079377 C11.03470736 74.34141264 5.68722103 69.01863183 0.33125673 63.70421562 C-3.77534679 59.62833246 -7.87150259 55.54207887 -11.96390343 51.45194054 C-13.64221211 49.77792383 -15.32396105 48.10734799 -17.00939751 46.44050789 C-19.31188736 44.16244232 -21.60166475 41.87229897 -23.88876343 39.57879639 C-24.55666377 38.92391165 -25.22456412 38.2690269 -25.91270387 37.59429717 C-30.73258715 32.72177665 -34.36374639 27.74266832 -35.53125 20.875 C-35.4494492 13.34932654 -34.58544356 7.8892947 -29.38671875 2.25 C-20.49553572 -5.95117991 -10.14016955 -5.84023721 0 0 Z " fill="#000000" transform="translate(184,46)"/>
</svg>
