<?xml version="1.0" encoding="UTF-8"?>
<svg version="1.1" xmlns="http://www.w3.org/2000/svg" width="512" height="512">
<path d="M0 0 C5.1027327 3.43453162 8.27389549 7.11378966 10 13 C11.02915241 20.80265551 10.08131308 26.33410386 6 33 C3.7785641 35.74831239 1.31805799 38.20630432 -1.20062256 40.68164062 C-1.92682903 41.41126479 -2.65303549 42.14088896 -3.40124822 42.89262295 C-5.82548931 45.32342761 -8.26370162 47.73970239 -10.70214844 50.15625 C-12.44741797 51.90039074 -14.19180618 53.64541375 -15.93537903 55.39125061 C-19.68520845 59.14198951 -23.44106169 62.88653228 -27.20259857 66.6255188 C-32.64104651 72.03138456 -38.06834535 77.44833221 -43.49303332 82.86800158 C-52.29564986 91.6618752 -61.10715189 100.44678893 -69.92431641 109.22607422 C-78.48663288 117.7516446 -87.0447157 126.28142838 -95.59716797 134.81689453 C-96.12481529 135.34349096 -96.65246262 135.87008739 -97.19609925 136.41264129 C-99.84326617 139.05458785 -102.49035037 141.69661727 -105.13739347 144.3386879 C-127.07878901 166.23865266 -149.03478269 188.12392682 -171 210 C-169.68762671 212.89997357 -168.28520994 214.9621901 -166.03203773 217.20288467 C-165.11537344 218.12182192 -165.11537344 218.12182192 -164.18019068 219.05932355 C-163.171648 220.05503499 -163.171648 220.05503499 -162.14273071 221.07086182 C-161.42922246 221.78325665 -160.71571421 222.49565149 -159.9805845 223.22963405 C-157.58241146 225.62172266 -155.17717592 228.00658337 -152.77197266 230.39160156 C-151.05359479 232.10286873 -149.33568505 233.81460608 -147.61820984 235.52677917 C-143.91537498 239.21650003 -140.20963499 242.90327696 -136.50151443 246.58768463 C-131.13382534 251.92140918 -125.77357478 257.26256129 -120.41549973 262.60594186 C-111.71368771 271.2838588 -103.00888349 279.95876629 -94.30078125 288.63037109 C-93.77960391 289.14936819 -93.25842657 289.66836528 -92.72145598 290.20308957 C-85.32917711 297.56416415 -77.93391819 304.92223761 -70.53744869 312.2791011 C-70.01687773 312.79688543 -69.49630677 313.31466977 -68.95996094 313.84814453 C-68.18005519 314.62386969 -68.18005519 314.62386969 -67.38439377 315.41526607 C-58.70758652 324.04596386 -50.03853756 332.68440634 -41.37578046 341.32920623 C-36.03470736 346.65858736 -30.68722103 351.98136817 -25.33125673 357.29578438 C-21.22465321 361.37166754 -17.12849741 365.45792113 -13.03609657 369.54805946 C-11.35778789 371.22207617 -9.67603895 372.89265201 -7.99060249 374.55949211 C-5.68811264 376.83755768 -3.39833525 379.12770103 -1.11123657 381.42120361 C-0.10938605 382.40353073 -0.10938605 382.40353073 0.91270387 383.40570283 C5.73258715 388.27822335 9.36374639 393.25733168 10.53125 400.125 C10.4494492 407.65067346 9.58544356 413.1107053 4.38671875 418.75 C-0.94132182 423.66455627 -6.28580178 425.56569339 -13.53092182 425.2908417 C-22.04117734 424.28838775 -27.76940836 418.94991444 -33.54098511 413.08047485 C-34.35101805 412.27683073 -35.16105099 411.47318661 -35.99563038 410.64518964 C-38.69511796 407.96090964 -41.37643445 405.25919935 -44.05810547 402.55712891 C-45.99299901 400.62297264 -47.93162635 398.69257413 -49.87007141 396.76197815 C-54.57870832 392.06783452 -59.27390711 387.36046942 -63.96456699 382.64836933 C-69.43006054 377.15881626 -74.90844272 371.68220094 -80.38727559 366.20596664 C-90.16247128 356.43445739 -99.92537704 346.65076007 -109.68164062 336.86035156 C-119.14491786 327.36396721 -128.61762141 317.877116 -138.10058594 308.40039062 C-148.43443365 298.07330849 -158.76364364 287.74163332 -169.08427536 277.4013418 C-169.90299729 276.58106064 -169.90299729 276.58106064 -170.73825905 275.74420815 C-171.83442461 274.64595175 -172.93058009 273.54768529 -174.02672537 272.44940866 C-177.84015959 268.62908324 -181.65669528 264.81187308 -185.47430038 260.99571609 C-190.12578531 256.34567152 -194.77165464 251.69009837 -199.41056351 247.0275066 C-201.77686036 244.64935903 -204.14620286 242.27448041 -206.52055168 239.904356 C-209.0943462 237.33426835 -211.65874309 234.75515777 -214.22091675 232.17349243 C-214.97255596 231.42718114 -215.72419517 230.68086986 -216.49861133 229.91194308 C-222.20869688 224.12654398 -225.42524681 219.51604504 -225.5 211.125 C-225.5309375 209.97257813 -225.561875 208.82015625 -225.59375 207.6328125 C-224.22414478 199.25299107 -217.87030723 193.4339264 -212.05633545 187.66192627 C-210.86501334 186.4614675 -210.86501334 186.4614675 -209.64962411 185.23675704 C-206.99843311 182.56897682 -204.336703 179.91197617 -201.67480469 177.25488281 C-199.76608492 175.34045445 -197.85958226 173.4238233 -195.95292664 171.50733948 C-191.31754711 166.85095759 -186.67399541 162.20281034 -182.02721134 157.55781206 C-178.24935095 153.78126162 -174.47406436 150.00215679 -170.70056915 146.22124481 C-169.61176837 145.13034475 -168.52296674 144.03944552 -167.43416429 142.94854712 C-166.62117558 142.13399313 -166.62117558 142.13399313 -165.79176286 141.30298349 C-155.55301854 131.04535869 -145.30434092 120.79770302 -135.05273989 110.55292985 C-125.6814975 101.18726467 -116.32353139 91.80845986 -106.97164306 82.42347255 C-97.35887772 72.77695045 -87.73683988 63.13976629 -78.10487103 53.51241755 C-72.70143524 48.111224 -67.30178638 42.70636988 -61.91194916 37.29160309 C-57.32444968 32.68306519 -52.72829943 28.08337381 -48.12083712 23.49479064 C-45.77207544 21.15517016 -43.42897337 18.81055268 -41.09376335 16.45736122 C-38.5577864 13.90321026 -36.00684583 11.36499119 -33.45159912 8.83013916 C-32.357936 7.71769927 -32.357936 7.71769927 -31.24217868 6.58278584 C-22.07671576 -2.42678932 -11.99671998 -6.17258621 0 0 Z " fill="#000000" transform="translate(353,45)"/>
</svg>
