<?xml version="1.0" encoding="UTF-8"?>
<svg version="1.1" xmlns="http://www.w3.org/2000/svg" width="512" height="512">
<path d="M0 0 C3.54534678 3.12328168 6.11893863 5.79431589 7.625 10.3125 C7.625 34.14505424 -21.81546626 79.19343251 -29.375 94.3125 C19.465 94.3125 68.305 94.3125 118.625 94.3125 C106.82456749 70.75122716 106.82456749 70.75122716 95.01977539 47.19213867 C92.73913574 42.63537598 92.73913574 42.63537598 91.67210388 40.50215149 C90.92621745 39.01191457 90.17953838 37.52207422 89.43223572 36.032547 C88.30069729 33.77677607 87.17167733 31.5197611 86.04321289 29.26245117 C85.70954995 28.5987234 85.37588701 27.93499563 85.03211308 27.2511549 C82.08175681 21.3370583 81.01744748 16.87181705 81.625 10.3125 C83.58934039 4.63773887 87.25300662 0.99849669 92.625 -1.6875 C98.54326835 -2.24100711 103.67361431 -2.28850777 108.625 1.3125 C113.01388234 6.38286101 116.22194416 11.93838475 119.16162109 17.93164062 C119.57214722 18.75210876 119.98267334 19.5725769 120.40563965 20.41790771 C121.74420393 23.09779575 123.0713827 25.78314668 124.3984375 28.46875 C125.33081077 30.34096646 126.26389689 32.21282808 127.19766235 34.08435059 C129.64108679 38.9863963 132.07485889 43.89317174 134.5065918 48.80102539 C136.99463004 53.81818278 139.49185032 58.83076489 141.98828125 63.84375 C146.87613965 73.66223272 151.75380413 83.48574115 156.625 93.3125 C157.56079391 93.31614563 158.49658783 93.31979126 159.46073914 93.32354736 C168.33072731 93.3606784 177.2003741 93.41864619 186.07010174 93.49640274 C190.6288606 93.53571403 195.18743101 93.56798192 199.74633789 93.58349609 C204.15566944 93.59877137 208.56448233 93.63340611 212.97358131 93.68080902 C214.64581577 93.69551175 216.31812433 93.70353455 217.9904232 93.70438385 C234.25925846 93.72093778 248.59395954 96.5475736 260.875 108.0625 C272.56109819 120.45684656 274.82030231 134.29087046 274.86523438 150.72290039 C274.87486375 152.84497448 274.90590069 154.96604626 274.9375 157.08789062 C275.05648563 172.14760071 272.55519209 185.39432717 262.2734375 196.95703125 C259.63829988 199.61362765 256.97927904 202.22624642 254.05827332 204.56915569 C252.06035813 206.99929518 252.01017417 208.93056374 251.67700195 212.04585266 C251.54258698 213.2413826 251.408172 214.43691254 251.26968384 215.66867065 C251.13398452 216.99564282 250.99852508 218.32263954 250.86328125 219.6496582 C250.71122571 221.04621263 250.55798789 222.44263877 250.40365601 223.83894348 C250.07354894 226.84852182 249.75177497 229.858835 249.43637085 232.8699894 C248.93626296 237.64326482 248.41730859 242.414376 247.89575195 247.18534851 C246.97752201 255.60743032 246.07550312 264.03119023 245.17687988 272.4553833 C243.82813628 285.09723416 242.46549472 297.73758289 241.08978176 310.37652653 C240.57557089 315.10610209 240.06922318 319.83643091 239.56939697 324.56754744 C239.25474265 327.53288094 238.93401349 330.49753688 238.611866 333.46206474 C238.39634115 335.46268168 238.18815659 337.46408529 237.98031616 339.46551514 C236.74252823 350.76043434 235.3907348 362.4032459 230 372.5625 C229.65372559 373.23015381 229.30745117 373.89780762 228.95068359 374.58569336 C221.44300947 388.48076898 209.49926449 397.39127495 194.625 402.3125 C187.69764572 404.28018973 181.11013415 404.6008664 173.93783569 404.57992554 C172.78916759 404.58445665 171.64049949 404.58898776 170.45702326 404.59365618 C166.62283744 404.6062773 162.78879409 404.60468125 158.95458984 404.60302734 C156.19930489 404.60792973 153.44402982 404.61576383 150.68875122 404.62338257 C143.98928585 404.63995434 137.28985569 404.64549041 130.59037153 404.64660732 C125.14019486 404.64755976 119.69002974 404.65167981 114.23985672 404.65800858 C98.76382613 404.67561174 83.2878232 404.68484907 67.81178252 404.68334763 C66.97847925 404.68326772 66.14517598 404.6831878 65.28662109 404.68310547 C64.0351273 404.68298283 64.0351273 404.68298283 62.7583508 404.68285771 C49.24750167 404.68204541 35.73676417 404.70117128 22.22594731 404.7293822 C8.32981953 404.75816701 -5.56625391 404.77191938 -19.46241224 404.77019465 C-27.25461824 404.7695326 -35.04670724 404.77494299 -42.83888626 404.79655075 C-49.47530246 404.81483655 -56.11154865 404.81904972 -62.74797924 404.8055319 C-66.1282376 404.79903869 -69.50790678 404.80095995 -72.88817596 404.8162384 C-95.49257529 404.91174747 -113.72886114 403.34439729 -130.8671875 387.01171875 C-134.77602448 382.80454374 -137.69207854 378.37633867 -140.375 373.3125 C-140.84679687 372.43464844 -141.31859375 371.55679687 -141.8046875 370.65234375 C-144.5431132 364.89192756 -145.90663461 359.14360029 -146.80322266 352.85913086 C-146.92810373 352.0031301 -147.05298481 351.14712934 -147.18165016 350.26518917 C-148.86476512 338.33034702 -150.06422736 326.33518987 -151.3173027 314.34927559 C-151.78161665 309.913808 -152.25649346 305.47950775 -152.73355103 301.0453949 C-152.85526045 299.91347028 -152.85526045 299.91347028 -152.97942865 298.7586785 C-153.14499696 297.21894953 -153.31058415 295.67922259 -153.47618985 294.13949764 C-154.58226812 283.85082651 -155.68091907 273.56146624 -156.75390625 263.26928711 C-157.48326106 256.27404436 -158.22817784 249.28065148 -158.9910742 242.28898472 C-159.3924992 238.60419966 -159.78591714 234.91895333 -160.16010666 231.23129463 C-160.57571293 227.13651489 -161.02539882 223.04617513 -161.47802734 218.95532227 C-161.59559891 217.74236984 -161.71317047 216.52941742 -161.83430481 215.27970886 C-162.42856186 208.60572332 -162.42856186 208.60572332 -165.88272095 203.12217712 C-166.70517303 202.52498367 -167.52762512 201.92779022 -168.375 201.3125 C-179.208868 191.55247354 -184.58404339 180.03268955 -185.65820312 165.47412109 C-185.75598549 162.10187234 -185.79735553 158.74658397 -185.76611328 155.37402344 C-185.75001001 153.31378021 -185.7660714 151.2554974 -185.78515625 149.1953125 C-185.81298481 132.98650625 -182.38631035 119.68737787 -171.3125 107.5 C-161.83855269 98.57761812 -149.21699098 93.95294401 -136.30664062 94.08544922 C-135.16372055 94.08501114 -135.16372055 94.08501114 -133.99771118 94.08456421 C-131.50877011 94.08594443 -129.02013801 94.1014431 -126.53125 94.1171875 C-124.79390629 94.1209223 -123.05656045 94.12376706 -121.31921387 94.12576294 C-116.76869794 94.13336268 -112.21831172 94.15297936 -107.66784668 94.1751709 C-103.01556146 94.19570854 -98.36325508 94.20478152 -93.7109375 94.21484375 C-84.59890166 94.23622901 -75.48696166 94.27032031 -66.375 94.3125 C-66.10765045 93.45215652 -65.8403009 92.59181305 -65.56484985 91.70539856 C-64.37568284 88.31444714 -62.95268991 85.23438709 -61.33740234 82.02612305 C-61.03784637 81.42832535 -60.73829041 80.83052765 -60.42965698 80.21461487 C-59.44375951 78.24927873 -58.45229949 76.28680327 -57.4609375 74.32421875 C-56.76510087 72.93883104 -56.06968404 71.5532324 -55.37466431 70.16743469 C-53.54317006 66.51772514 -51.70724778 62.87026328 -49.86999512 59.22344971 C-46.95593536 53.43836618 -44.04675475 47.65083392 -41.14069366 41.86172867 C-40.4384125 40.46349327 -39.73550766 39.06557095 -39.03197479 37.66796494 C-34.52939973 28.72230545 -30.14662752 19.74481427 -26.13525391 10.56567383 C-23.64791922 5.96876194 -20.57321631 1.71691597 -16.125 -1.125 C-10.37477967 -2.30118143 -5.3289749 -2.66448745 0 0 Z M-149.6875 133.875 C-153.66021797 139.6133704 -152.59802662 146.41199983 -152.625 153.125 C-152.645625 154.39666016 -152.66625 155.66832031 -152.6875 156.97851562 C-152.69265625 158.20892578 -152.6978125 159.43933594 -152.703125 160.70703125 C-152.7124707 161.82956299 -152.72181641 162.95209473 -152.73144531 164.10864258 C-152.25342887 168.40522457 -150.80325048 171.78249122 -147.83984375 174.95703125 C-143.19425874 178.50953744 -141.15526931 179.43747788 -135.33600235 179.44672108 C-133.39184476 179.45340784 -133.39184476 179.45340784 -131.40841126 179.46022969 C-129.95637654 179.46014039 -128.50434183 179.45995052 -127.05230713 179.45967102 C-125.52043049 179.46296858 -123.98855471 179.46669391 -122.45668006 179.4708125 C-118.23139567 179.48085295 -114.00612549 179.48455257 -109.78083086 179.48720181 C-105.22991866 179.49109881 -100.67901778 179.50067755 -96.12811279 179.50941467 C-85.12993705 179.52919611 -74.13176036 179.53924737 -63.13357127 179.54814246 C-57.9581036 179.55252258 -52.78263696 179.5578901 -47.6071701 179.56313133 C-30.40920855 179.58014522 -13.21124764 179.5946403 3.98672104 179.60188007 C8.45175935 179.60379006 12.91679765 179.60571038 17.38183594 179.60766602 C19.04654168 179.60839163 19.04654168 179.60839163 20.74487785 179.6091319 C38.73060572 179.61743555 56.71626716 179.64277742 74.70196602 179.67524669 C93.15516215 179.70828914 111.60832449 179.72632628 130.06155038 179.72952431 C140.42736443 179.73169201 150.7930816 179.74047859 161.15886688 179.76598549 C169.98533702 179.78765406 178.81168675 179.79576189 187.63818046 179.78601871 C192.1432246 179.78146284 196.6480201 179.78343467 201.1530304 179.80278015 C205.27614924 179.82033312 209.39883664 179.81947856 213.52195957 179.80388286 C215.01459945 179.80149476 216.5072686 179.8058923 217.99986359 179.81771151 C220.02740191 179.83277389 222.05508725 179.8208009 224.08263779 179.80748463 C225.20932302 179.80846144 226.33600826 179.80943824 227.49683547 179.81044465 C232.50345799 179.013485 235.60111099 176.44707971 238.9375 172.75 C242.91021797 167.0116296 241.84802662 160.21300017 241.875 153.5 C241.895625 152.22833984 241.91625 150.95667969 241.9375 149.64648438 C241.94265625 148.41607422 241.9478125 147.18566406 241.953125 145.91796875 C241.96714355 144.23417114 241.96714355 144.23417114 241.98144531 142.51635742 C241.50342887 138.21977543 240.05325048 134.84250878 237.08984375 131.66796875 C232.67886238 128.29486535 230.6764942 127.18683592 225.16552734 127.19897461 C223.45397964 127.19908791 223.45397964 127.19908791 221.70785522 127.19920349 C220.47137238 127.20436478 219.23488953 127.20952606 217.9609375 127.21484375 C216.0674205 127.21696617 216.0674205 127.21696617 214.13565063 127.21913147 C210.77861701 127.22378922 207.421651 127.23277592 204.06463623 127.24383545 C200.63945094 127.2540623 197.21425866 127.25863182 193.7890625 127.26367188 C187.06768957 127.27471762 180.34634869 127.29146806 173.625 127.3125 C173.82996094 127.92738281 174.03492188 128.54226562 174.24609375 129.17578125 C179.05109901 143.59079704 179.05109901 143.59079704 176.125 150.5 C173.66647864 154.97398764 170.43988786 156.86168633 165.625 158.3125 C159.44074596 159.19596486 155.74458033 157.61545505 150.625 154.3125 C145.16832694 145.5818231 140.42015301 136.42329072 135.625 127.3125 C75.565 127.3125 15.505 127.3125 -46.375 127.3125 C-49.675 133.5825 -52.975 139.8525 -56.375 146.3125 C-62.57168246 156.22719194 -62.57168246 156.22719194 -69.375 158.3125 C-74.42192336 159.03348905 -78.17271527 158.12572151 -82.57421875 155.70703125 C-86.74345349 152.4783614 -88.06621382 148.09659793 -88.9375 143.0625 C-88.37471268 139.31058456 -87.32495955 136.55202504 -85.83984375 133.078125 C-85.15136353 131.45825684 -85.15136353 131.45825684 -84.44897461 129.80566406 C-84.09456299 128.98291992 -83.74015137 128.16017578 -83.375 127.3125 C-90.83352442 127.21962253 -98.29192317 127.14864569 -105.75090981 127.10525131 C-109.21484499 127.0844189 -112.67838313 127.05618261 -116.14208984 127.01074219 C-120.12853159 126.95877415 -124.11481525 126.93951867 -128.1015625 126.921875 C-129.95812973 126.89090729 -129.95812973 126.89090729 -131.85220337 126.85931396 C-140.20703562 126.85713934 -144.01690563 127.5913684 -149.6875 133.875 Z M-128.375 212.3125 C-128.39446267 219.77843113 -128.39446267 219.77843113 -127.86369324 227.11094666 C-127.75023056 228.16905045 -127.63676788 229.22715424 -127.51986694 230.31732178 C-127.39366974 231.4474469 -127.26747253 232.57757202 -127.13745117 233.74194336 C-127.00572006 234.95614456 -126.87398895 236.17034576 -126.73826599 237.42134094 C-126.37826815 240.7276039 -126.01384737 244.0333133 -125.64678741 247.33879542 C-125.33958285 250.10924894 -125.03513272 252.88000272 -124.73054963 255.65074545 C-124.01120434 262.19274041 -123.2863598 268.73411062 -122.55834961 275.27514648 C-121.81009567 281.99918815 -121.07243663 288.72433441 -120.33977526 295.4500913 C-119.70780614 301.24730909 -119.0685613 307.04369494 -118.42372686 312.83949572 C-118.03982012 316.29107679 -117.65872618 319.74290823 -117.28493309 323.19560051 C-116.86739109 327.04948553 -116.43470279 330.90159083 -116.00073242 334.75366211 C-115.88060791 335.881763 -115.7604834 337.00986389 -115.63671875 338.17214966 C-114.45161141 348.48453645 -112.72477445 357.58718963 -105.375 365.3125 C-98.02104245 371.13438306 -91.27072583 371.60656816 -82.23600769 371.57992554 C-80.54725233 371.58672221 -80.54725233 371.58672221 -78.8243807 371.59365618 C-75.04978961 371.60632204 -71.27534241 371.60467838 -67.50073242 371.60302734 C-64.79526729 371.60792447 -62.08981227 371.61575981 -59.38435364 371.62338257 C-52.79678131 371.63998068 -46.20924477 371.64549157 -39.62165328 371.64660732 C-34.2657468 371.64755836 -28.90985211 371.6516714 -23.55394936 371.65800858 C-8.36182539 371.67561768 6.83027034 371.68484796 22.02240459 371.68334763 C23.25038536 371.68322776 23.25038536 371.68322776 24.50317383 371.68310547 C25.3228297 371.68302371 26.14248558 371.68294195 26.98697951 371.68285771 C40.26927858 371.68204488 53.55146423 371.70118247 66.8337305 371.7293822 C80.47887173 371.75812328 94.12395767 371.77192183 107.76912993 371.77019465 C115.42705081 371.76953117 123.08485277 371.77500483 130.74274635 371.79655075 C137.26302674 371.81477868 143.78313431 371.81909674 150.30342916 371.8055319 C153.62824467 371.79901014 156.95245877 371.80103697 160.27728653 371.8162384 C163.88683889 371.83167183 167.49552312 371.82239389 171.10505676 371.80697632 C172.1486502 371.81726344 173.19224364 371.82755057 174.26746112 371.83814943 C182.41037575 371.76138394 188.10398972 369.61469903 194.875 365.1875 C201.2431215 358.52991843 203.37434435 350.74528061 204.25512695 341.78466797 C204.42492679 340.29880597 204.42492679 340.29880597 204.59815693 338.78292656 C204.83593703 336.68624893 205.06551815 334.58862681 205.2872963 332.49019623 C205.61791515 329.37916642 205.97402628 326.27221815 206.33944702 323.1651001 C207.0972331 316.69855668 207.82208686 310.22855996 208.54296875 303.7578125 C208.80768048 301.3908541 209.07243664 299.02390067 209.3372345 296.6569519 C209.88581662 291.74787463 210.43259061 286.83859979 210.97827148 281.92919922 C211.67613082 275.65369377 212.38060346 269.37894908 213.08661938 263.10435677 C213.63301777 258.23876921 214.17494586 253.3726913 214.71563148 248.50646591 C214.97357219 246.19153808 215.23311855 243.87678854 215.49434471 241.56222916 C215.85794433 238.33642253 216.21525172 235.10997648 216.57104492 231.88330078 C216.67854065 230.94191254 216.78603638 230.00052429 216.89678955 229.03060913 C216.99342392 228.14274719 217.09005829 227.25488525 217.18962097 226.34011841 C217.31651448 225.20272815 217.31651448 225.20272815 217.44597149 224.04236031 C217.7018725 220.14033368 217.625 216.22290882 217.625 212.3125 C103.445 212.3125 -10.735 212.3125 -128.375 212.3125 Z " fill="#000000" transform="translate(211.375,54.6875)"/>
<path d="M0 0 C4.52966583 2.47551505 7.16586374 5.37259122 8.8125 10.3125 C8.92273603 12.65676137 8.97159107 15.00404663 8.98950195 17.35083008 C8.99935875 18.4196769 8.99935875 18.4196769 9.00941467 19.51011658 C9.02911934 21.86742258 9.04080375 24.22466496 9.05078125 26.58203125 C9.05485678 27.38820074 9.0589323 28.19437023 9.06313133 29.0249691 C9.08397976 33.29178994 9.09828691 37.55857872 9.10766602 41.82543945 C9.11872946 46.22716859 9.15313174 50.62839208 9.19283772 55.02994251 C9.2190103 58.41949896 9.22735838 61.808935 9.23094749 65.1985836 C9.23581162 66.82086287 9.24742074 68.44313682 9.26598549 70.06531715 C9.29039238 72.33927887 9.28940987 74.61193313 9.2824707 76.88598633 C9.28833694 78.17821609 9.29420319 79.47044586 9.30024719 80.80183411 C8.56349709 86.1047523 6.13755562 89.14518909 2.1875 92.625 C-2.49681776 95.95333104 -6.5598594 95.78868497 -12.1875 95.3125 C-17.71256254 93.36849652 -20.71639374 90.31772115 -23.27871704 85.08332825 C-24.38094401 81.72270006 -24.45603156 78.8917478 -24.47802734 75.35424805 C-24.48474457 74.67386475 -24.49146179 73.99348145 -24.49838257 73.29248047 C-24.51731148 71.05298468 -24.5212843 68.81378947 -24.5234375 66.57421875 C-24.52986963 65.0086912 -24.5365983 63.44316484 -24.54360962 61.87763977 C-24.55557007 58.59849259 -24.55929178 55.31945065 -24.55810547 52.0402832 C-24.5579025 47.85398882 -24.585187 43.66837496 -24.61964989 39.48224163 C-24.64197272 36.24871265 -24.64594135 33.01534594 -24.64488602 29.78174782 C-24.64723456 28.23928295 -24.65601576 26.69681309 -24.67155075 25.15442467 C-24.80959239 10.03170115 -24.80959239 10.03170115 -20.1875 3.3125 C-13.86626389 -1.71868793 -7.56870114 -3.50193635 0 0 Z " fill="#000000" transform="translate(178.1875,299.6875)"/>
<path d="M0 0 C3.68807589 2.6217409 5.39998447 6.08667215 6.796875 10.27734375 C6.90676523 12.51916137 6.95592131 14.76410742 6.97387695 17.00854492 C6.98373375 18.02868179 6.98373375 18.02868179 6.99378967 19.06942749 C7.01349507 21.31972369 7.02518097 23.56995313 7.03515625 25.8203125 C7.03923178 26.590888 7.0433073 27.36146351 7.04750633 28.15538979 C7.06835842 32.23648433 7.08266209 36.31754537 7.09204102 40.39868164 C7.10308506 44.60068711 7.1374637 48.80216005 7.17721272 53.00397778 C7.20344423 56.2460677 7.21173876 59.48803219 7.21532249 62.73021889 C7.22017405 64.27827857 7.23174705 65.82633318 7.25036049 67.37428856 C7.42059413 82.47377306 7.42059413 82.47377306 2.796875 89.27734375 C-2.08429015 93.92040329 -6.17013106 94.63462388 -12.69921875 94.55859375 C-17.65359055 94.00209645 -20.34237806 91.25440784 -23.515625 87.65234375 C-26.36358708 83.64410083 -26.33819964 81.28352854 -26.36425781 76.35253906 C-26.36922272 75.64012054 -26.37418762 74.92770203 -26.37930298 74.19369507 C-26.39393666 71.8309432 -26.40072962 69.46825854 -26.40625 67.10546875 C-26.41200177 65.46360268 -26.4177595 63.82173663 -26.42352295 62.17987061 C-26.43403726 58.7331918 -26.43987667 55.28653634 -26.44335938 51.83984375 C-26.44883602 47.43033126 -26.47284429 43.02112883 -26.50133133 38.61171341 C-26.51998927 35.21786612 -26.52516505 31.82409291 -26.52669525 28.43019867 C-26.52971669 26.80514588 -26.53772804 25.18009423 -26.55088043 23.55509186 C-26.56800252 21.27639994 -26.5660457 18.99845734 -26.55957031 16.71972656 C-26.56321594 15.42448059 -26.56686157 14.12923462 -26.57061768 12.79473877 C-26.04540258 7.76772982 -24.48875931 4.49531309 -20.828125 1.02734375 C-13.79655114 -3.66037216 -7.44410513 -4.05386345 0 0 Z " fill="#000000" transform="translate(351.203125,300.72265625)"/>
<path d="M0 0 C3.88446678 2.58964452 6.69907021 5.64814041 8.8125 9.875 C8.92596149 12.25367993 8.98028269 14.60379304 8.98950195 16.98339844 C8.99935875 18.08128693 8.99935875 18.08128693 9.00941467 19.20135498 C9.02916064 21.62902933 9.04081414 24.05664173 9.05078125 26.484375 C9.05485678 27.31352669 9.0589323 28.14267838 9.06313133 28.99695587 C9.0839993 33.38696545 9.09829689 37.77694372 9.10766602 42.16699219 C9.11872187 46.69765934 9.15310984 51.22783419 9.19283772 55.75832748 C9.21900953 59.24482117 9.22735842 62.73119779 9.23094749 66.21778107 C9.23581334 67.88750782 9.24742736 69.55722934 9.26598549 71.22686005 C9.2903861 73.56797507 9.28941065 75.90781965 9.2824707 78.24902344 C9.29528076 78.93496582 9.30809082 79.6209082 9.32128906 80.32763672 C9.26794536 85.28136747 7.90472947 88.06055249 4.8125 91.875 C0.0500342 95.494474 -3.70169735 96.58361658 -9.6875 96.328125 C-14.79896126 95.40167265 -18.69091032 92.89510781 -21.76795959 88.74168396 C-23.50359113 85.23667131 -23.61674418 82.24954592 -23.59155273 78.42602539 C-23.59841599 77.69366165 -23.60527924 76.96129791 -23.61235046 76.20674133 C-23.63059356 73.79518024 -23.62678466 71.38427128 -23.62109375 68.97265625 C-23.62565685 67.29023528 -23.63096281 65.60781618 -23.63697815 63.92539978 C-23.64590441 60.40241922 -23.64349183 56.87966541 -23.63354492 53.35668945 C-23.6220573 48.84957608 -23.64226556 44.34324643 -23.67146206 39.836236 C-23.68983861 36.36257483 -23.68952871 32.88910096 -23.68382454 29.41540337 C-23.68367149 27.75407245 -23.68970201 26.09272871 -23.70211601 24.43144417 C-23.71705195 22.10492409 -23.7063315 19.77984518 -23.68920898 17.45336914 C-23.69887695 16.77213989 -23.70854492 16.09091064 -23.71850586 15.38903809 C-23.6427668 10.45614913 -22.23165556 7.69432827 -19.1875 3.875 C-13.37010796 -1.37484159 -7.3959011 -2.61031804 0 0 Z " fill="#000000" transform="translate(263.1875,299.125)"/>
</svg>
