<?xml version="1.0" encoding="UTF-8"?>
<svg version="1.1" xmlns="http://www.w3.org/2000/svg" width="256" height="256">
<path d="M0 0 C2.74175663 0.72174363 3.9581334 1.63210439 6.03447723 3.53981876 C6.72831009 4.17613287 7.42214294 4.81244698 8.13700104 5.46804333 C12.43454072 9.57858235 16.65722678 13.75993245 20.85393524 17.97303104 C21.87951767 18.99889615 22.90532154 20.02453992 23.93132782 21.04998112 C26.69333924 23.81170768 29.45227413 26.57648869 32.21063423 29.34186149 C35.10225784 32.23977073 37.99674666 35.13481536 40.89092255 38.03017521 C46.36089313 43.50324382 51.82831135 48.97885469 57.29479933 54.45540148 C63.52262323 60.69443416 69.75331438 66.93060009 75.98423862 73.16653621 C88.79228669 85.98501404 101.59676014 98.80705713 114.39885712 111.63147831 C117.96392838 110.11536434 120.24386807 108.03107523 122.96651459 105.29760075 C123.87785156 104.38756794 124.78918854 103.47753513 125.72814178 102.53992558 C126.73061131 101.52878349 127.7329886 100.51754995 128.7352829 99.50623417 C129.79621632 98.4430991 130.85759854 97.38041174 131.91939545 96.31813908 C134.20313267 94.03146997 136.48367897 91.74168157 138.76180649 89.44942379 C142.3617586 85.82721068 145.96878088 82.21209434 149.57680511 78.59792423 C155.28006371 72.88328667 160.97862862 67.16399484 166.67516983 61.44266182 C176.88390576 51.18957784 187.09825489 40.94209305 197.31780231 30.69978529 C200.90588224 27.10328211 204.49113414 23.50398964 208.07416177 19.9024533 C210.29941713 17.66657956 212.52668176 15.43271548 214.75445938 13.19935513 C215.78977441 12.1605602 216.82421623 11.12089418 217.85773468 10.08031178 C219.26458788 8.66405258 220.6747835 7.25111589 222.08516693 5.83837223 C222.87455721 5.04546252 223.66394749 4.25255281 224.47725868 3.43561554 C227.53539932 0.56440932 230.01453251 0.15610217 234.22307587 0.23304081 C237.60927163 0.85313411 239.66038443 2.34581958 242.09416962 4.72913456 C244.05352689 7.58604173 244.40447916 9.81240265 244.03033543 13.23262119 C243.3085918 15.97437782 242.39823104 17.19075459 240.49051666 19.26709843 C239.85420256 19.96093128 239.21788845 20.65476414 238.5622921 21.36962223 C234.45175308 25.66716191 230.27040297 29.88984797 226.05730438 34.08655643 C225.03143928 35.11213887 224.0057955 36.13794273 222.98035431 37.16394901 C220.21862775 39.92596043 217.45384673 42.68489533 214.68847394 45.44325542 C211.7905647 48.33487903 208.89552007 51.22936786 206.00016022 54.12354374 C200.52709161 59.59351432 195.05148073 65.06093254 189.57493395 70.52742052 C183.33590127 76.75524442 177.09973534 82.98593557 170.86379921 89.21685982 C158.04532139 102.02490789 145.2232783 114.82938133 132.39885712 127.63147831 C133.91497109 131.19654957 135.99926019 133.47648926 138.73273468 136.19913578 C139.64276749 137.11047276 140.55280029 138.02180973 141.49040985 138.96076298 C142.50155193 139.96323251 143.51278548 140.96560979 144.52410126 141.96790409 C145.58723632 143.02883751 146.64992368 144.09021973 147.71219635 145.15201664 C149.99886545 147.43575386 152.28865386 149.71630016 154.58091164 151.99442768 C158.20312474 155.59437979 161.81824109 159.20140207 165.43241119 162.80942631 C171.14704876 168.51268491 176.86634059 174.21124981 182.5876736 179.90779102 C192.84075758 190.11652695 203.08824237 200.33087608 213.33055013 210.5504235 C216.92705332 214.13850343 220.52634578 217.72375534 224.12788212 221.30678296 C226.36375586 223.53203832 228.59761995 225.75930296 230.8309803 227.98708057 C231.86977523 229.0223956 232.90944125 230.05683743 233.95002365 231.09035587 C235.36628285 232.49720908 236.77921954 233.9074047 238.1919632 235.31778812 C238.9848729 236.1071784 239.77778261 236.89656868 240.59471989 237.70987988 C243.46592611 240.76802051 243.87423325 243.2471537 243.79729462 247.45569706 C243.17720132 250.84189283 241.68451585 252.89300563 239.30120087 255.32679081 C236.4442937 257.28614809 234.21793277 257.63710035 230.79771423 257.26295662 C228.05595761 256.54121299 226.83958084 255.63085223 224.763237 253.72313786 C224.06940414 253.08682375 223.37557129 252.45050964 222.6607132 251.79491329 C218.36317352 247.68437427 214.14048746 243.50302416 209.94377899 239.28992558 C208.91819656 238.26406047 207.8923927 237.2384167 206.86638641 236.2129755 C204.10437499 233.45124894 201.3454401 230.68646793 198.58708 227.92109513 C195.6954564 225.02318589 192.80096757 222.12814126 189.90679169 219.23278141 C184.43682111 213.7597128 178.96940288 208.28410192 173.50291491 202.80755514 C167.275091 196.56852246 161.04439985 190.33235653 154.81347561 184.09642041 C142.00542754 171.27794258 129.20095409 158.45589949 116.39885712 145.63147831 C112.83378585 147.14759228 110.55384617 149.23188138 107.83119965 151.96535587 C106.91986267 152.87538868 106.0085257 153.78542149 105.06957245 154.72303104 C104.06710292 155.73417313 103.06472563 156.74540667 102.06243134 157.75672245 C101.00149791 158.81985751 99.9401157 159.88254488 98.87831879 160.94481754 C96.59458157 163.23148665 94.31403527 165.52127505 92.03590775 167.81353283 C88.43595564 171.43574594 84.82893335 175.05086228 81.22090912 178.66503239 C75.51765052 184.37966995 69.81908562 190.09896178 64.12254441 195.8202948 C53.91380847 206.07337878 43.69945934 216.32086356 33.47991192 226.56317133 C29.89183199 230.15967451 26.30658009 233.75896698 22.72355247 237.36050332 C20.4982971 239.59637706 18.27103247 241.83024114 16.04325485 244.06360149 C15.00793982 245.10239642 13.973498 246.14206244 12.93997955 247.18264484 C11.53312635 248.59890404 10.12293073 250.01184073 8.7125473 251.42458439 C7.92315702 252.2174941 7.13376675 253.0104038 6.32045555 253.82734108 C2.97884206 256.96469236 0.18099095 257.10180761 -4.26911163 257.02991581 C-7.65755062 256.45098654 -9.37141987 255.13975017 -11.55426788 252.53382206 C-13.6068943 248.80386287 -13.62072149 245.70464336 -12.60114288 241.63147831 C-11.35411739 239.79737949 -11.35411739 239.79737949 -9.69670868 237.99585819 C-9.05983061 237.30202534 -8.42295254 236.60819248 -7.76677513 235.89333439 C-3.65372805 231.59753553 0.52696023 227.37345832 4.74040985 223.17640018 C5.76627495 222.15081775 6.79191873 221.12501389 7.81735992 220.09900761 C10.57908649 217.33699618 13.3438675 214.57806129 16.10924029 211.81970119 C19.00714954 208.92807759 21.90219416 206.03358876 24.79755402 203.13941288 C30.27062263 197.6694423 35.7462335 192.20202408 41.22278029 186.7355361 C47.46181296 180.5077122 53.6979789 174.27702105 59.93391502 168.0460968 C72.75239285 155.23804873 85.57443593 142.43357529 98.39885712 129.63147831 C96.88274314 126.06640705 94.79845404 123.78646736 92.06497955 121.06382084 C91.15494675 120.15248386 90.24491394 119.24114689 89.30730438 118.30219364 C88.2961623 117.29972411 87.28492876 116.29734683 86.27361298 115.29505253 C85.21047791 114.23411911 84.14779055 113.17273689 83.08551788 112.11093998 C80.79884878 109.82720276 78.50906038 107.54665646 76.2168026 105.26852894 C72.59458949 101.66857683 68.97947315 98.06155455 65.36530304 94.45353031 C59.65066547 88.75027171 53.93137364 83.05170681 48.21004063 77.3551656 C37.95695665 67.14642967 27.70947186 56.93208054 17.4671641 46.71253312 C13.87066092 43.12445319 10.27136845 39.53920128 6.66983211 35.95617366 C4.43395837 33.73091829 2.20009428 31.50365366 -0.03326607 29.27587605 C-1.07206099 28.24056101 -2.11172702 27.20611919 -3.15230942 26.17260075 C-4.56856862 24.76574754 -5.9815053 23.35555192 -7.39424896 21.9451685 C-8.18715867 21.15577822 -8.98006838 20.36638794 -9.79700565 19.55307674 C-12.66821187 16.49493611 -13.07651902 14.01580292 -12.99958038 9.80725956 C-12.37948708 6.42106379 -10.88680162 4.36995099 -8.50348663 1.93616581 C-5.64657946 -0.02319147 -3.42021854 -0.37414373 0 0 Z " fill="#212121" transform="translate(12.601142883300781,-0.6314783096313477)"/>
</svg>
