<?xml version="1.0" encoding="UTF-8"?>
<svg version="1.1" xmlns="http://www.w3.org/2000/svg" width="512" height="512">
<path d="M0 0 C1.91541581 -0.00461239 3.83082808 -0.01096757 5.74623299 -0.01890898 C10.99476045 -0.03557893 16.2429963 -0.02736644 21.4915247 -0.0149641 C27.15759806 -0.00590644 32.82362162 -0.01988692 38.48968506 -0.03088379 C49.58362662 -0.04866589 60.6774599 -0.04483036 71.7714057 -0.03323323 C80.78806287 -0.02419799 89.8046897 -0.0229753 98.8213501 -0.02732849 C100.10487558 -0.02794142 101.38840107 -0.02855436 102.71082127 -0.02918586 C105.31831663 -0.03046477 107.92581198 -0.03176162 110.53330731 -0.03307623 C134.28425756 -0.04415604 158.03514224 -0.03266781 181.78608206 -0.01170584 C203.45816835 0.00727596 225.13016062 0.00557742 246.80224609 -0.0135498 C271.16286163 -0.0349781 295.5234132 -0.0433825 319.88403893 -0.03110075 C322.48191706 -0.02982656 325.07979519 -0.02856908 327.67767334 -0.02732849 C329.59495859 -0.02640284 329.59495859 -0.02640284 331.55097687 -0.02545848 C340.55631595 -0.02200547 349.56162166 -0.02783292 358.56695557 -0.0372467 C369.54215057 -0.04846755 380.51723114 -0.04542471 391.49241304 -0.02412373 C397.0916222 -0.0136146 402.6906406 -0.00948934 408.28984833 -0.02272034 C413.41701119 -0.03465261 418.54380673 -0.02806759 423.67093635 -0.00681013 C425.52409686 -0.00234766 427.37728849 -0.00460234 429.23042893 -0.01431328 C441.46025808 -0.07347699 452.1363756 0.4291472 461.42138672 9.35559082 C468.04427171 17.15304729 470.4874087 25.49501981 469.82763672 35.59777832 C468.54989124 44.2398271 464.58505486 51.72241233 457.510252 56.98867846 C447.83542989 63.4903243 437.71236034 63.07462996 426.49902344 63.01586914 C424.58360762 63.02048153 422.66819535 63.02683671 420.75279045 63.03477812 C415.50426299 63.05144807 410.25602714 63.04323558 405.00749874 63.03083324 C399.34142537 63.02177558 393.67540182 63.03575606 388.00933838 63.04675293 C376.91539682 63.06453503 365.82156354 63.0606995 354.72761774 63.04910237 C345.71096057 63.04006713 336.69433374 63.03884445 327.67767334 63.04319763 C326.39414785 63.04381056 325.11062237 63.0444235 323.78820217 63.045055 C321.18070681 63.04633391 318.57321146 63.04763076 315.96571612 63.04894537 C292.21476588 63.06002518 268.4638812 63.04853695 244.71294138 63.02757498 C223.04085509 63.00859318 201.36886281 63.01029172 179.69677734 63.02941895 C155.3361618 63.05084724 130.97561024 63.05925164 106.61498451 63.04696989 C104.01710638 63.0456957 101.41922824 63.04443822 98.8213501 63.04319763 C96.90406485 63.04227198 96.90406485 63.04227198 94.94804657 63.04132763 C85.94270749 63.03787461 76.93740178 63.04370206 67.93206787 63.05311584 C56.95687287 63.06433669 45.98179229 63.06129385 35.00661039 63.03999287 C29.40740124 63.02948374 23.80838284 63.02535848 18.20917511 63.03858948 C13.08201225 63.05052175 7.9552167 63.04393673 2.82808709 63.02267927 C0.97492658 63.0182168 -0.87826506 63.02047148 -2.7314055 63.03018242 C-14.96123464 63.08934613 -25.63735216 62.58672194 -34.92236328 53.66027832 C-41.54524827 45.86282185 -43.98838527 37.52084934 -43.32861328 27.41809082 C-42.05086781 18.77604204 -38.08603142 11.29345681 -31.01122856 6.02719069 C-21.33640645 -0.47445516 -11.2133369 -0.05876082 0 0 Z " fill="#000000" transform="translate(42.75048828125,224.4920654296875)"/>
</svg>
