<svg width="45" height="52" viewBox="0 0 45 52" fill="none" xmlns="http://www.w3.org/2000/svg">
<path d="M1.32611 48.1868C1.61074 49.8844 3.20345 51.3318 5.07372 51.572C5.69143 51.6494 6.30947 51.7217 6.92784 51.789C8.41457 51.9505 9.62172 50.9028 9.57428 49.513C9.34079 43.1678 9.25534 36.8222 9.31792 30.4764C9.33104 29.0875 8.05223 28.0086 6.51806 28.1237C5.88219 28.1708 5.24598 28.2222 4.60943 28.2781C2.6786 28.4507 1.10608 29.8294 0.904216 31.518C0.248903 37.0659 0.390975 42.6791 1.32611 48.1868Z" fill="#5882F6"/>
<path d="M44.3683 33.3228C44.2102 33.0477 44.0088 32.7999 43.7718 32.589C42.8169 31.607 41.204 31.4465 40.2613 32.4548C38.2881 34.7025 36.3088 37.1986 34.3265 39.7905L34.1428 40.0287C33.4091 40.9522 32.3604 41.475 31.2582 41.4821C28.8631 41.4972 26.7637 41.4972 24.3686 41.4821C23.6338 41.476 22.8334 40.8109 22.8334 39.9681C22.8334 39.1254 23.6338 38.4663 24.3686 38.4622C26.038 38.4542 27.4097 38.4521 29.0801 38.4552C30.5234 38.4552 31.7043 37.1047 31.7043 35.4504V35.4202C31.6781 33.7669 30.5234 32.4033 29.0801 32.3872C27.4954 32.3724 25.9115 32.3848 24.3282 32.4245C23.4696 32.4313 22.6415 32.1062 22.0169 31.5172C18.8435 28.4276 14.2451 29.0353 10.8578 31.9209C10.8235 37.2864 10.8972 42.7054 11.0758 48.0699C13.5466 49.1337 16.1022 49.8866 18.6911 50.144C22.5776 50.532 26.485 50.6703 30.3892 50.5578C33.2768 50.4781 36.002 48.6623 37.7259 46.0159C39.8172 42.7982 41.9015 39.741 43.9766 37.033C44.8871 35.8764 44.9557 34.2897 44.3683 33.3228Z" fill="#5882F6"/>
<path d="M35.2763 11.2455C34.0571 12.7595 32.7954 14.3269 31.5227 15.9257C31.2703 16.241 31.1312 16.6321 31.128 17.0359C31.128 19.0223 31.0843 21.0072 30.9968 22.9909C30.9373 24.2021 29.7079 25.17 28.6259 24.8208C26.8515 24.2505 25.0378 23.6156 23.1948 22.9384C22.825 22.8041 22.4199 22.8041 22.0502 22.9384C20.2072 23.6126 18.3934 24.2505 16.619 24.8177C15.537 25.167 14.3077 24.2 14.2491 22.9879C14.163 21.0056 14.1189 19.0206 14.1169 17.0329C14.1138 16.629 13.9748 16.2379 13.7223 15.9227C12.4495 14.3249 11.1879 12.7564 9.96861 11.2425C9.21768 10.3159 9.73849 8.95033 10.9436 8.56679C12.9057 7.95111 14.8628 7.32433 16.8068 6.70764C17.2002 6.58428 17.5416 6.33405 17.7777 5.99607C18.9526 4.30346 20.1143 2.60175 21.2316 0.909138C21.9159 -0.132473 23.329 -0.132473 24.0174 0.909138C25.1347 2.60175 26.2964 4.30346 27.4672 5.99607C27.7018 6.33447 28.0418 6.58573 28.4341 6.71067C30.3781 7.32736 32.3352 7.95414 34.2973 8.56982C35.5065 8.95336 36.0273 10.322 35.2763 11.2455Z" fill="#5882F6"/>
</svg>
