<?xml version="1.0" encoding="UTF-8"?>
<svg version="1.1" xmlns="http://www.w3.org/2000/svg" width="48" height="48">
<path d="M0 0 C0.73734375 0.00773437 1.4746875 0.01546875 2.234375 0.0234375 C3.34039063 0.01183594 3.34039063 0.01183594 4.46875 0 C9.9810554 0.0201179 9.9810554 0.0201179 12.234375 2.2734375 C14.05456126 15.71596061 14.05456126 15.71596061 10.69140625 20.44140625 C6.48550103 23.21551395 2.22196071 24.21449141 -2.765625 23.2734375 C-6.49347521 20.45309601 -7.65588313 19.04316546 -8.32421875 14.35546875 C-8.30973176 12.93179307 -8.26876663 11.50817288 -8.203125 10.0859375 C-8.19732422 9.36212891 -8.19152344 8.63832031 -8.18554688 7.89257812 C-8.02920833 1.17002057 -6.67341794 0.02435554 0 0 Z " fill="#E4E2FF" transform="translate(21.765625,20.7265625)"/>
<path d="M0 0 C0.73734375 0.00773437 1.4746875 0.01546875 2.234375 0.0234375 C3.34039063 0.01183594 3.34039063 0.01183594 4.46875 0 C9.9810554 0.0201179 9.9810554 0.0201179 12.234375 2.2734375 C12.37945195 5.01829343 12.42089923 7.65824293 12.359375 10.3984375 C12.35035156 11.15253906 12.34132813 11.90664063 12.33203125 12.68359375 C12.3084437 14.54701004 12.27257219 16.41026343 12.234375 18.2734375 C10.254375 19.2634375 10.254375 19.2634375 8.234375 20.2734375 C8.234375 14.94010417 8.234375 9.60677083 8.234375 4.2734375 C6.61023122 4.07866011 4.98501077 3.89284292 3.359375 3.7109375 C2.45445313 3.60652344 1.54953125 3.50210937 0.6171875 3.39453125 C-1.78215557 3.07668898 -1.78215557 3.07668898 -3.765625 4.2734375 C-3.84670083 6.21024911 -3.90484975 8.1480309 -3.953125 10.0859375 C-3.98792969 11.16488281 -4.02273437 12.24382813 -4.05859375 13.35546875 C-4.01867797 16.2644971 -4.01867797 16.2644971 -2.38671875 18.12890625 C-0.79034415 19.40753373 -0.79034415 19.40753373 1.359375 19.7734375 C1.978125 19.9384375 2.596875 20.1034375 3.234375 20.2734375 C3.564375 21.2634375 3.894375 22.2534375 4.234375 23.2734375 C0.05959537 23.68272962 -2.04407183 23.80784432 -5.4765625 21.265625 C-8.352221 17.50665842 -8.4124882 14.62214006 -8.203125 10.0859375 C-8.19732422 9.36212891 -8.19152344 8.63832031 -8.18554688 7.89257812 C-8.02920833 1.17002057 -6.67341794 0.02435554 0 0 Z " fill="#8353FD" transform="translate(21.765625,20.7265625)"/>
<path d="M0 0 C1.875 1 1.875 1 3 3 C3.5212894 5.78021013 3.61175461 8.22979043 3 11 C0.31165033 13.53021146 -1.4827895 13.93793474 -5.125 14.375 C-8 14 -8 14 -9.875 13 C-11.6895272 9.77417386 -11.79334396 6.59250094 -11 3 C-7.64660506 -0.15613642 -4.49563007 -0.58638653 0 0 Z " fill="#E2E0FF" transform="translate(28,5)"/>
<path d="M0 0 C1.64630328 0.14042877 3.29204179 0.28749329 4.9375 0.4375 C6.31228516 0.55931641 6.31228516 0.55931641 7.71484375 0.68359375 C10 1 10 1 11 2 C11.07244053 4.01964199 11.08377188 6.04167124 11.0625 8.0625 C11.05347656 9.16722656 11.04445313 10.27195312 11.03515625 11.41015625 C11.02355469 12.26480469 11.01195312 13.11945312 11 14 C10.484375 13.319375 9.96875 12.63875 9.4375 11.9375 C6.9286773 8.91404701 4.23880623 6.24937313 1.390625 3.55078125 C0 2 0 2 0 0 Z " fill="#B9B6FE" transform="translate(20,23)"/>
<path d="M0 0 C5.33333333 -0.35555556 5.33333333 -0.35555556 7.875 1 C9.70488947 4.25313684 9.18128355 7.31390109 9 11 C7.68 11 6.36 11 5 11 C5.1546875 9.6078125 5.1546875 9.6078125 5.3125 8.1875 C5.209375 7.135625 5.10625 6.08375 5 5 C2.57327433 3.21030974 2.57327433 3.21030974 0 2 C0 1.34 0 0.68 0 0 Z " fill="#8354FD" transform="translate(22,5)"/>
<path d="M0 0 C0.99 0 1.98 0 3 0 C3.268125 1.134375 3.53625 2.26875 3.8125 3.4375 C4.4003125 5.2009375 4.4003125 5.2009375 5 7 C5.99 7.33 6.98 7.66 8 8 C8.33 8.99 8.66 9.98 9 11 C3.66666667 11.35555556 3.66666667 11.35555556 1.125 10 C-0.70488947 6.74686316 -0.18128355 3.68609891 0 0 Z " fill="#8354FD" transform="translate(17,8)"/>
<path d="M0 0 C2.9719385 1.12451727 5.33440687 2.22293791 8 4 C7.67 5.32 7.34 6.64 7 8 C5.35 6.68 3.7 5.36 2 4 C1.01 4.495 1.01 4.495 0 5 C-0.5625 3.0625 -0.5625 3.0625 -1 1 C-0.67 0.67 -0.34 0.34 0 0 Z " fill="#BBB5FE" transform="translate(20,6)"/>
<path d="M0 0 C1.66611905 -0.042721 3.33382885 -0.04063832 5 0 C6 1 6 1 6.0625 3.5625 C6.041875 4.366875 6.02125 5.17125 6 6 C3.97945196 4.35830472 1.97956942 2.69088222 0 1 C0 0.67 0 0.34 0 0 Z " fill="#9793FE" transform="translate(25,24)"/>
</svg>
