<?xml version="1.0" encoding="UTF-8"?>
<svg version="1.1" xmlns="http://www.w3.org/2000/svg" width="512" height="512">
<path d="M0 0 C8.4259959 5.04423026 13.08528485 11.69640252 15.5 21.0625 C15.87276293 24.01661331 15.89463055 26.9147516 15.86076355 29.88941956 C15.86332682 30.73015406 15.8658901 31.57088857 15.86853105 32.43709987 C15.87343648 35.22853111 15.85703005 38.01941038 15.84057617 40.81079102 C15.8397292 42.82194506 15.84020642 44.83310003 15.84190369 46.84425354 C15.84276231 52.28577771 15.8251579 57.72710237 15.80418181 63.16858029 C15.78539298 68.86204589 15.78366283 74.55551636 15.78010559 80.24900818 C15.77079162 91.02228968 15.74618656 101.79547955 15.71605712 112.56872076 C15.68249298 124.83712329 15.66602203 137.10553026 15.65097082 149.37396729 C15.61963647 174.60352894 15.56688853 199.83300933 15.5 225.0625 C17.06321519 225.05696924 17.06321519 225.05696924 18.65801048 225.05132675 C44.03089601 224.96247715 69.40376133 224.89677258 94.77676964 224.85525131 C107.04703683 224.83463757 119.31720117 224.80653951 131.58740234 224.76074219 C142.28373301 224.72083826 152.97998917 224.69505856 163.6763922 224.68614602 C169.33859902 224.68093735 175.00059273 224.66871949 180.66273117 224.63957977 C185.99624277 224.61235466 191.32945422 224.60406942 196.66302872 224.61006927 C198.61648949 224.60897222 200.56996069 224.60106083 202.52336121 224.5856781 C215.26637085 224.49028261 226.02358277 224.68296514 235.73828125 234.04296875 C242.06233874 241.29249807 243.49855709 248.80278012 242.97265625 258.21875 C241.87640715 267.13370134 237.71625159 272.47869453 231.171875 278.37109375 C224.77309957 282.42178053 218.12627228 283.50811916 210.67308044 283.42326355 C209.41197869 283.42710846 209.41197869 283.42710846 208.12540013 283.43103105 C205.33396889 283.43593648 202.54308962 283.41953005 199.75170898 283.40307617 C197.74055494 283.4022292 195.72939997 283.40270642 193.71824646 283.40440369 C188.27672229 283.40526231 182.83539763 283.3876579 177.39391971 283.36668181 C171.70045411 283.34789298 166.00698364 283.34616283 160.31349182 283.34260559 C149.54021032 283.33329162 138.76702045 283.30868656 127.99377924 283.27855712 C115.72537671 283.24499298 103.45696974 283.22852203 91.18853271 283.21347082 C65.95897106 283.18213647 40.72949067 283.12938853 15.5 283.0625 C15.50368717 284.10464346 15.50737434 285.14678692 15.51117325 286.22051048 C15.60002285 311.59339601 15.66572742 336.96626133 15.70724869 362.33926964 C15.72786243 374.60953683 15.75596049 386.87970117 15.80175781 399.14990234 C15.84166174 409.84623301 15.86744144 420.54248917 15.87635398 431.2388922 C15.88156265 436.90109902 15.89378051 442.56309273 15.92292023 448.22523117 C15.95014534 453.55874277 15.95843058 458.89195422 15.95243073 464.22552872 C15.95352778 466.17898949 15.96143917 468.13246069 15.9768219 470.08586121 C16.07221739 482.82887085 15.87953486 493.58608277 6.51953125 503.30078125 C-0.72999807 509.62483874 -8.24028012 511.06105709 -17.65625 510.53515625 C-26.57120134 509.43890715 -31.91619453 505.27875159 -37.80859375 498.734375 C-41.85928053 492.33559957 -42.94561916 485.68877228 -42.86076355 478.23558044 C-42.86332682 477.39484594 -42.8658901 476.55411143 -42.86853105 475.68790013 C-42.87343648 472.89646889 -42.85703005 470.10558962 -42.84057617 467.31420898 C-42.8397292 465.30305494 -42.84020642 463.29189997 -42.84190369 461.28074646 C-42.84276231 455.83922229 -42.8251579 450.39789763 -42.80418181 444.95641971 C-42.78539298 439.26295411 -42.78366283 433.56948364 -42.78010559 427.87599182 C-42.77079162 417.10271032 -42.74618656 406.32952045 -42.71605712 395.55627924 C-42.68249298 383.28787671 -42.66602203 371.01946974 -42.65097082 358.75103271 C-42.61963647 333.52147106 -42.56688853 308.29199067 -42.5 283.0625 C-43.54214346 283.06618717 -44.58428692 283.06987434 -45.65801048 283.07367325 C-71.03089601 283.16252285 -96.40376133 283.22822742 -121.77676964 283.26974869 C-134.04703683 283.29036243 -146.31720117 283.31846049 -158.58740234 283.36425781 C-169.28373301 283.40416174 -179.97998917 283.42994144 -190.6763922 283.43885398 C-196.33859902 283.44406265 -202.00059273 283.45628051 -207.66273117 283.48542023 C-212.99624277 283.51264534 -218.32945422 283.52093058 -223.66302872 283.51493073 C-225.61648949 283.51602778 -227.56996069 283.52393917 -229.52336121 283.5393219 C-242.26637085 283.63471739 -253.02358277 283.44203486 -262.73828125 274.08203125 C-269.06233874 266.83250193 -270.49855709 259.32221988 -269.97265625 249.90625 C-268.87640715 240.99129866 -264.71625159 235.64630547 -258.171875 229.75390625 C-251.77309957 225.70321947 -245.12627228 224.61688084 -237.67308044 224.70173645 C-236.83234594 224.69917318 -235.99161143 224.6966099 -235.12540013 224.69396895 C-232.33396889 224.68906352 -229.54308962 224.70546995 -226.75170898 224.72192383 C-224.74055494 224.7227708 -222.72939997 224.72229358 -220.71824646 224.72059631 C-215.27672229 224.71973769 -209.83539763 224.7373421 -204.39391971 224.75831819 C-198.70045411 224.77710702 -193.00698364 224.77883717 -187.31349182 224.78239441 C-176.54021032 224.79170838 -165.76702045 224.81631344 -154.99377924 224.84644288 C-142.72537671 224.88000702 -130.45696974 224.89647797 -118.18853271 224.91152918 C-92.95897106 224.94286353 -67.72949067 224.99561147 -42.5 225.0625 C-42.50368717 224.02035654 -42.50737434 222.97821308 -42.51117325 221.90448952 C-42.60002285 196.53160399 -42.66572742 171.15873867 -42.70724869 145.78573036 C-42.72786243 133.51546317 -42.75596049 121.24529883 -42.80175781 108.97509766 C-42.84166174 98.27876699 -42.86744144 87.58251083 -42.87635398 76.8861078 C-42.88156265 71.22390098 -42.89378051 65.56190727 -42.92292023 59.89976883 C-42.95014534 54.56625723 -42.95843058 49.23304578 -42.95243073 43.89947128 C-42.95352778 41.94601051 -42.96143917 39.99253931 -42.9768219 38.03913879 C-43.07221739 25.29612915 -42.87953486 14.53891723 -33.51953125 4.82421875 C-24.37213826 -3.15542194 -11.18737558 -4.95490246 0 0 Z " fill="#000000" transform="translate(269.5,1.9375)"/>
</svg>
