<?xml version="1.0" standalone="no"?>
<!DOCTYPE svg PUBLIC "-//W3C//DTD SVG 20010904//EN"
 "http://www.w3.org/TR/2001/REC-SVG-20010904/DTD/svg10.dtd">
<svg version="1.0" xmlns="http://www.w3.org/2000/svg"
 width="512.000000pt" height="512.000000pt" viewBox="0 0 512.000000 512.000000"
 preserveAspectRatio="xMidYMid meet">

<g transform="translate(0.000000,512.000000) scale(0.100000,-0.100000)"
fill="#000000" stroke="none">
<path d="M910 4674 c-223 -58 -408 -245 -465 -469 -22 -87 -22 -609 0 -663 64
-152 273 -172 370 -34 l30 44 5 276 c4 223 8 284 21 312 18 39 76 95 118 113
16 7 129 13 303 17 l276 5 44 30 c138 97 118 306 -34 370 -52 21 -585 21 -668
-1z"/>
<path d="M3540 4674 c-167 -74 -165 -318 2 -389 30 -12 83 -15 278 -15 288 0
316 -5 380 -70 65 -64 70 -92 70 -380 0 -195 3 -248 15 -278 64 -152 273 -172
370 -34 l30 44 0 321 0 322 -26 67 c-74 190 -208 324 -397 397 -66 25 -70 26
-377 28 -262 2 -315 1 -345 -13z"/>
<path d="M1179 4027 c-24 -13 -57 -43 -74 -66 l-30 -43 -3 -481 c-2 -325 0
-494 8 -519 14 -49 53 -94 104 -121 40 -22 49 -22 500 -25 532 -3 537 -3 605
74 61 70 63 87 59 599 -3 438 -4 451 -25 490 -27 50 -58 80 -105 100 -32 13
-107 15 -516 15 l-479 0 -44 -23z m741 -612 l0 -215 -215 0 -215 0 0 208 c0
115 3 212 7 215 3 4 100 7 215 7 l208 0 0 -215z"/>
<path d="M2900 4034 c-46 -20 -77 -50 -103 -99 -21 -39 -22 -52 -25 -490 -4
-527 -3 -535 68 -605 70 -71 78 -72 605 -68 l450 3 45 25 c24 14 58 45 75 68
l30 44 0 502 0 502 -25 37 c-14 21 -43 50 -64 65 l-39 27 -491 2 c-422 2 -496
0 -526 -13z m728 -621 l2 -213 -215 0 -215 0 0 215 0 215 213 -2 212 -3 3
-212z"/>
<path d="M1230 2341 c-76 -24 -131 -74 -150 -139 -8 -25 -10 -194 -8 -518 l3
-481 27 -39 c15 -21 44 -50 65 -64 l37 -25 502 0 502 0 44 30 c23 17 54 51 68
75 l25 45 3 450 c4 512 2 529 -59 599 -67 75 -72 76 -588 75 -245 0 -457 -4
-471 -8z m690 -636 l0 -215 -212 2 -213 3 -3 213 -2 212 215 0 215 0 0 -215z"/>
<path d="M2777 2343 c-4 -3 -7 -100 -7 -215 l0 -208 215 0 215 0 0 -215 0
-215 -215 0 -215 0 0 -210 0 -210 215 0 215 0 0 210 0 210 213 2 212 3 3 213
2 212 210 0 210 0 0 215 0 215 -210 0 -210 0 0 -215 0 -215 -215 0 -215 0 0
215 0 215 -208 0 c-115 0 -212 -3 -215 -7z"/>
<path d="M590 1701 c-78 -25 -131 -75 -150 -139 -8 -25 -10 -137 -8 -337 3
-295 4 -301 29 -367 73 -189 207 -323 397 -397 l67 -26 322 0 321 0 44 30
c138 97 118 306 -34 370 -30 12 -83 15 -278 15 -288 0 -316 5 -380 70 -65 64
-70 92 -70 380 0 257 -5 286 -53 338 -47 51 -149 82 -207 63z"/>
<path d="M4430 1701 c-74 -24 -119 -63 -145 -123 -12 -30 -15 -83 -15 -278 0
-288 -5 -316 -70 -380 -64 -65 -92 -70 -380 -70 -257 0 -286 -5 -338 -53 -115
-107 -71 -314 76 -357 24 -8 137 -10 332 -8 272 3 300 5 360 26 187 63 334
207 409 400 25 66 26 72 29 367 4 321 0 352 -45 405 -48 57 -151 91 -213 71z"/>
</g>
</svg>
