<?xml version="1.0" encoding="UTF-8"?>
<svg version="1.1" xmlns="http://www.w3.org/2000/svg" width="512" height="512">
<path d="M0 0 C9.07868232 8.6997967 13.56467214 18.8403269 14.02734375 31.31274414 C14.22230002 44.48176931 10.79387041 55.27522232 1.51953125 64.9453125 C-8.99065959 74.75 -8.99065959 74.75 -15.375 74.75 C-15.375 83.33 -15.375 91.91 -15.375 100.75 C-12.21220459 100.72905273 -9.04940918 100.70810547 -5.79077148 100.68652344 C4.70643728 100.61998563 15.20365582 100.57595805 25.70102024 100.54275131 C32.06015318 100.52195408 38.41906846 100.49378089 44.77807617 100.44824219 C50.92486116 100.40450311 57.07143791 100.38080388 63.21836662 100.37049103 C65.55330618 100.36314979 67.88823547 100.34881532 70.2230854 100.32707977 C92.21933737 100.13061823 110.77057253 102.7021337 127.51269531 118.42016602 C137.52515084 128.34340498 145.41937448 142.96849294 145.69213867 157.27026367 C145.6841626 158.51525635 145.67618652 159.76024902 145.66796875 161.04296875 C145.66176514 162.30004639 145.65556152 163.55712402 145.64916992 164.85229492 C145.64119385 165.8085376 145.63321777 166.76478027 145.625 167.75 C146.66317871 167.72905273 147.70135742 167.70810547 148.77099609 167.68652344 C152.66603505 167.61348042 156.56101497 167.56796966 160.45654297 167.53027344 C162.13438131 167.51030301 163.81215136 167.48311668 165.48974609 167.44824219 C178.16888556 167.19148773 188.1965599 167.681293 197.87109375 176.828125 C205.00381372 184.64393396 206.93016985 192.69302572 206.8996582 203.01489258 C206.9073246 204.36758492 206.9073246 204.36758492 206.91514587 205.74760437 C206.92898622 208.71331518 206.92808904 211.67879208 206.92578125 214.64453125 C206.9296717 216.71807439 206.93400709 218.79161675 206.93876648 220.86515808 C206.94621711 225.20676254 206.94594614 229.54828568 206.94067383 233.88989258 C206.93488589 239.43443744 206.95179967 244.97864753 206.9750185 250.52313709 C206.98980205 254.80500716 206.99062117 259.08679751 206.98750877 263.36868858 C206.98801983 265.41187896 206.99321679 267.45507406 207.00332069 269.49823952 C207.01575528 272.36468414 207.00885117 275.23048828 206.99731445 278.09692383 C207.00495819 278.92894318 207.01260193 279.76096252 207.02047729 280.61819458 C206.92937573 290.93791609 203.93593017 299.3808154 196.625 306.75 C189.62135435 312.29342609 182.74014137 314.06194876 173.9453125 313.9453125 C173.13254852 313.9424826 172.31978455 313.93965271 171.48239136 313.93673706 C168.90477325 313.92560619 166.32751181 313.90051515 163.75 313.875 C161.99479671 313.86496101 160.23958794 313.85583677 158.484375 313.84765625 C154.19778074 313.82569015 149.9114507 313.79120978 145.625 313.75 C145.64348999 315.16152344 145.64348999 315.16152344 145.66235352 316.6015625 C145.67194092 317.84679687 145.68152832 319.09203125 145.69140625 320.375 C145.70989624 322.21964844 145.70989624 322.21964844 145.72875977 324.1015625 C145.25285014 340.83566476 136.36989662 354.58551978 124.625 365.75 C111.91171986 377.25937103 96.54337352 381.23603743 79.80004883 381.09057617 C78.44868997 381.08972786 77.09732974 381.09020902 75.74597168 381.09190369 C72.1123172 381.09275712 68.47896569 381.07523851 64.84538102 381.05418181 C61.03509487 381.03530493 57.22480019 381.03365596 53.41447449 381.03010559 C46.21470839 381.02081722 39.01508052 380.99624739 31.81537503 380.96605712 C23.61215169 380.93241261 15.40892142 380.91600195 7.20564616 380.90097082 C-9.65464988 380.86969458 -26.51480724 380.81699723 -43.375 380.75 C-43.35143433 382.4968811 -43.35143433 382.4968811 -43.32739258 384.27905273 C-43.272748 388.63445005 -43.23852524 392.98981756 -43.21020508 397.34545898 C-43.19519667 399.2240917 -43.17478348 401.10268984 -43.14868164 402.98120117 C-43.11194614 405.69458593 -43.09519393 408.4075041 -43.08203125 411.12109375 C-43.05880547 412.36384315 -43.05880547 412.36384315 -43.03511047 413.63169861 C-43.03337804 419.74930608 -43.61774625 426.57719685 -47.79182434 431.38035583 C-52.58369987 435.52592511 -56.72871495 436.12139512 -62.828125 436.015625 C-69.95749611 435.27207096 -74.69773479 429.80983178 -79.70703125 425.171875 C-82.33863389 422.7830117 -85.04374161 420.54014584 -87.8125 418.3125 C-92.58496203 414.45291397 -97.10609109 410.37800009 -101.62109375 406.22265625 C-105.19951709 403.00968891 -108.92606681 400.00359202 -112.66796875 396.984375 C-116.24491849 394.03197204 -119.66994623 390.92905438 -123.0859375 387.79296875 C-124.21902344 386.78169922 -124.21902344 386.78169922 -125.375 385.75 C-126.04144531 385.01265625 -126.70789063 384.2753125 -127.39453125 383.515625 C-132.20752524 380.66441493 -137.20252978 381.28952916 -142.6875 381.3125 C-162.85751481 380.95949684 -178.00196102 375.29270386 -192.375 360.75 C-202.68035494 349.48553282 -208.60785465 335.66420992 -208.4453125 320.3671875 C-208.43516113 319.12308105 -208.42500977 317.87897461 -208.41455078 316.59716797 C-208.40149902 315.65760254 -208.38844727 314.71803711 -208.375 313.75 C-209.44347168 313.77094727 -210.51194336 313.79189453 -211.61279297 313.81347656 C-215.61965251 313.88649321 -219.62645465 313.93202112 -223.63378906 313.96972656 C-225.36012702 313.98970285 -227.08639853 314.01689372 -228.8125 314.05175781 C-240.94534674 314.29048281 -251.46726545 314.22861584 -260.84375 305.44921875 C-267.86492693 297.6578617 -269.67945621 289.58925463 -269.6496582 279.37744141 C-269.6573246 278.00770927 -269.6573246 278.00770927 -269.66514587 276.61030579 C-269.67898646 273.60732371 -269.6780892 270.60457258 -269.67578125 267.6015625 C-269.67967134 265.50320349 -269.68400665 263.40484526 -269.68876648 261.30648804 C-269.6962169 256.91360926 -269.69594603 252.52081087 -269.69067383 248.12792969 C-269.68488218 242.51378584 -269.70180876 236.89997223 -269.7250185 231.28588295 C-269.73978978 226.9534413 -269.74062289 222.62107855 -269.73750877 218.28861618 C-269.73802032 216.21947959 -269.74322665 214.15033838 -269.75332069 212.08122635 C-269.765733 209.18105197 -269.75886458 206.28151277 -269.74731445 203.38134766 C-269.75495819 202.53638229 -269.76260193 201.69141693 -269.77047729 200.82084656 C-269.69028904 191.65687745 -267.07159746 183.7190219 -260.69140625 176.96875 C-250.25068993 167.05322062 -239.35422456 167.21719008 -225.75 167.5 C-224.06121916 167.52010067 -222.37241515 167.53834512 -220.68359375 167.5546875 C-216.58014889 167.59838985 -212.47783489 167.66721736 -208.375 167.75 C-208.38660156 166.80825928 -208.39820313 165.86651855 -208.41015625 164.89624023 C-208.41917969 163.65044189 -208.42820313 162.40464355 -208.4375 161.12109375 C-208.44910156 159.89060303 -208.46070313 158.6601123 -208.47265625 157.39233398 C-208.06227397 142.08610081 -199.87398364 127.95808888 -189.2265625 117.33984375 C-176.38609953 105.67788903 -160.62864968 100.39596605 -143.53100586 100.52294922 C-141.96358643 100.52251114 -141.96358643 100.52251114 -140.36450195 100.52206421 C-136.93952892 100.52344818 -133.51477838 100.53896537 -130.08984375 100.5546875 C-127.70374165 100.55842094 -125.317638 100.56126635 -122.93153381 100.56326294 C-116.67294021 100.57087328 -110.41444048 100.59049939 -104.15588379 100.6126709 C-97.76083648 100.63318542 -91.3657739 100.64227663 -84.97070312 100.65234375 C-72.43875436 100.67374779 -59.9068997 100.7089087 -47.375 100.75 C-47.375 92.17 -47.375 83.59 -47.375 74.75 C-49.685 74.09 -51.995 73.43 -54.375 72.75 C-64.97395135 66.38374675 -72.53533875 56.73276606 -75.91918945 44.83691406 C-78.47071663 33.15482818 -76.70352345 20.34409305 -70.83203125 10.04296875 C-63.88786011 -0.55602931 -54.51311985 -7.66352468 -42.2421875 -11.13671875 C-26.45342748 -14.18197099 -12.21082139 -10.28183918 0 0 Z M-41.375 24.75 C-44.03916489 28.30221985 -43.91898498 32.48311782 -43.375 36.75 C-41.61586879 40.91636339 -39.54136339 42.99086879 -35.375 44.75 C-31.38530457 45.34076626 -28.29034841 45.13648044 -24.5625 43.5625 C-20.63507719 40.30834967 -19.50365911 37.90793195 -18.9375 32.8125 C-19.09818902 28.56227539 -20.64505527 26.02593367 -23.375 22.75 C-29.24673006 18.83551329 -36.60622086 19.38512346 -41.375 24.75 Z M-169.375 144.75 C-173.84427598 151.33162035 -175.49405867 156.52262595 -175.52217102 164.46572876 C-175.52584771 165.13996049 -175.5295244 165.81419223 -175.5333125 166.50885522 C-175.54432161 168.76714171 -175.54818848 171.02538214 -175.55200195 173.28369141 C-175.55826879 174.90350489 -175.56491578 176.52331695 -175.57191467 178.14312744 C-175.59293436 183.46259565 -175.60331629 188.78206408 -175.61328125 194.1015625 C-175.61732983 195.93515411 -175.62144678 197.76874558 -175.62563133 199.60233688 C-175.64467977 208.21899978 -175.65891056 216.83565414 -175.6672433 225.45233405 C-175.67700956 235.38648361 -175.70331454 245.32041 -175.74374419 255.25448096 C-175.77394679 262.94043113 -175.78871617 270.62631749 -175.79202431 278.31232584 C-175.7943704 282.89913044 -175.80327301 287.48569654 -175.82848549 292.07243729 C-175.85184336 296.39155967 -175.85596863 300.7102878 -175.84572411 305.02945709 C-175.84523048 306.60880473 -175.85149961 308.18817228 -175.86528015 309.76745987 C-175.96264313 321.59371122 -174.78796996 331.14039697 -166.34375 339.99609375 C-156.30309046 348.94104639 -144.11132249 349.0704527 -131.31298828 348.67700195 C-121.70978097 348.46218541 -115.29615956 349.86684222 -108.25 356.5625 C-106.95485976 357.73875784 -105.65927337 358.91452457 -104.36328125 360.08984375 C-103.7079541 360.69425293 -103.05262695 361.29866211 -102.37744141 361.92138672 C-99.12426771 364.89215861 -95.77811565 367.75344915 -92.4375 370.625 C-87.82833411 374.61027982 -83.23812286 378.61478411 -78.6953125 382.67578125 C-77.52940253 383.85518515 -77.52940253 383.85518515 -76.375 383.75 C-76.3656543 383.02409668 -76.35630859 382.29819336 -76.34667969 381.55029297 C-76.29278719 378.24118786 -76.20917561 374.93346762 -76.125 371.625 C-76.11082031 370.48289062 -76.09664063 369.34078125 -76.08203125 368.1640625 C-75.89698081 361.79832738 -75.74804738 357.54493692 -71.375 352.75 C-66.26163613 348.94775507 -61.32703544 348.62583147 -55.10174561 348.61869812 C-53.20513939 348.61268585 -53.20513939 348.61268585 -51.2702179 348.60655212 C-49.8764343 348.60702717 -48.48265073 348.60756327 -47.08886719 348.6081543 C-45.61506547 348.6051208 -44.14126469 348.60159882 -42.66746521 348.59762573 C-39.49726 348.58975042 -36.32706597 348.58459695 -33.15685272 348.58133507 C-28.13840821 348.57541122 -23.12003409 348.55885746 -18.10162354 348.53999329 C-16.38145069 348.53365623 -14.66127781 348.52733061 -12.94110489 348.52101612 C-11.64905663 348.5162674 -11.64905663 348.5162674 -10.33090639 348.51142275 C1.34823095 348.46939759 13.02733503 348.43637811 24.70654297 348.42407227 C32.59030915 348.41568029 40.47390035 348.39314865 48.35757899 348.3547166 C52.52568038 348.33499617 56.69352044 348.32253802 60.86167145 348.32755089 C64.78527243 348.33221237 68.70837852 348.31831084 72.63187981 348.29053879 C74.06648827 348.28365245 75.50114819 348.28347278 76.93575478 348.29073906 C88.35004187 348.34268425 96.35867097 346.59758317 104.83203125 338.75 C110.70154928 332.20273806 112.74162467 325.66509586 112.77217102 317.03427124 C112.77768605 316.02292364 112.77768605 316.02292364 112.7833125 314.99114478 C112.79432161 312.73285829 112.79818848 310.47461786 112.80200195 308.21630859 C112.80826879 306.59649511 112.81491578 304.97668305 112.82191467 303.35687256 C112.84293436 298.03740435 112.85331629 292.71793592 112.86328125 287.3984375 C112.86732983 285.56484589 112.87144678 283.73125442 112.87563133 281.89766312 C112.89467977 273.28100022 112.90891056 264.66434586 112.9172433 256.04766595 C112.92700956 246.11351639 112.95331454 236.17959 112.99374419 226.24551904 C113.02394679 218.55956887 113.03871617 210.87368251 113.04202431 203.18767416 C113.0443704 198.60086956 113.05327301 194.01430346 113.07848549 189.42756271 C113.10184336 185.10844033 113.10596863 180.7897122 113.09572411 176.47054291 C113.09523048 174.89119527 113.10149961 173.31182772 113.11528015 171.73254013 C113.21232035 159.94549642 112.01740978 150.40633211 103.6953125 141.5078125 C98.44941816 137.05375127 91.47865546 133.63296654 84.53562069 133.61577892 C83.69979959 133.61132108 82.8639785 133.60686324 82.00282949 133.60227031 C81.08456162 133.60245467 80.16629375 133.60263903 79.22019958 133.60282898 C78.2446394 133.59915229 77.26907922 133.5954756 76.26395661 133.5916875 C72.97992089 133.580634 69.69591679 133.57680396 66.41186523 133.57299805 C64.06314493 133.56673458 61.71442562 133.56008789 59.3657074 133.55308533 C52.30567162 133.53384479 45.24563939 133.52325421 38.18558392 133.51435754 C34.85907896 133.50997293 31.53257557 133.50460531 28.20607185 133.49936867 C17.14417953 133.48235504 6.08228819 133.46786239 -4.97961521 133.46061993 C-7.85009831 133.45871009 -10.72058139 133.45678975 -13.59106445 133.45483398 C-14.30449239 133.45435024 -15.01792033 133.4538665 -15.75296729 133.4533681 C-27.30175337 133.44507352 -38.85043568 133.41974692 -50.39917649 133.38725331 C-62.26219201 133.35414832 -74.12515487 133.33616797 -85.98821682 133.33297569 C-92.64632449 133.33081351 -99.30430098 133.32166285 -105.96237373 133.29651451 C-112.22914803 133.27322735 -118.49565054 133.26900341 -124.76245689 133.27927589 C-127.0593875 133.27977123 -129.35633152 133.27345165 -131.65322113 133.25971985 C-134.79624287 133.24198493 -137.93829094 133.24911568 -141.08131409 133.26225281 C-141.9839669 133.25128356 -142.88661972 133.24031432 -143.81662565 133.22901267 C-153.98527936 133.33117711 -162.62080454 137.0652265 -169.375 144.75 Z M-236.375 200.75 C-236.375 227.15 -236.375 253.55 -236.375 280.75 C-227.135 280.75 -217.895 280.75 -208.375 280.75 C-208.375 254.35 -208.375 227.95 -208.375 200.75 C-217.615 200.75 -226.855 200.75 -236.375 200.75 Z M145.625 200.75 C145.625 227.15 145.625 253.55 145.625 280.75 C154.865 280.75 164.105 280.75 173.625 280.75 C173.625 254.35 173.625 227.95 173.625 200.75 C164.385 200.75 155.145 200.75 145.625 200.75 Z " fill="#000000" transform="translate(287.375,44.25)"/>
<path d="M0 0 C4.52831715 2.0308418 8.63854325 4.81322995 12.828125 7.453125 C18.26277728 10.85659457 23.87762232 13.1220637 30 15 C31.01320312 15.31710937 32.02640625 15.63421875 33.0703125 15.9609375 C55.08491466 21.74308602 78.94403875 18.38025161 99 8 C101.22016921 6.55974971 103.42869024 5.10137924 105.625 3.625 C111.7909323 -0.30493487 116.79007238 -1.47229753 124 0 C128.03654111 1.9828623 130.6500056 4.16579861 133 8 C134.80400594 13.41201782 134.96169408 18.90936069 132.5625 24.125 C114.83489319 44.01451008 84.9931474 51.3531079 59.1640625 53.203125 C35.31518506 53.64341197 4.42199267 46.70130692 -14 31 C-22.13100851 22.7945317 -22.13100851 22.7945317 -22.25 16.25 C-22.19172005 11.75596793 -21.60877529 8.77822629 -19 5 C-13.01084815 -0.40484435 -7.96868246 -1.47192224 0 0 Z " fill="#000000" transform="translate(200,302)"/>
<path d="M0 0 C4.88047662 4.2994675 7.44198479 7.52151804 7.875 14.125 C7.7864062 19.49969052 5.75196205 22.85407852 2.5 27.0625 C-1.28757643 30.02669025 -4.60502336 30.98466655 -9.375 31.3125 C-14.96087189 30.47461922 -17.81456173 28.66414678 -21.375 24.3125 C-24.30201201 19.77058481 -25.25331218 15.64225798 -24.375 10.3125 C-23.02619953 5.89678419 -21.13663424 2.42196601 -17.25 -0.1875 C-11.54559288 -2.93542945 -5.59317291 -2.79658646 0 0 Z " fill="#000000" transform="translate(326.375,232.6875)"/>
<path d="M0 0 C4.42484878 2.21242439 7.19476657 4.94799616 10 9 C11.79910157 14.39730471 11.69468904 19.10048284 9.375 24.25 C7.24677716 28.05093132 4.96219203 30.057749 1 32 C-4.73908531 33.59419036 -8.88083211 32.79618414 -14 30 C-17.57699362 27.04509223 -19.84349713 24.52087484 -21 20 C-21.44688145 14.36929379 -21.22028305 10.83042458 -18 6 C-12.29479759 0.37086696 -7.87908061 -0.8727597 0 0 Z " fill="#000000" transform="translate(199,231)"/>
</svg>
